<?xml version="1.0" encoding="UTF-8"?>
<svg version="1.1" xmlns="http://www.w3.org/2000/svg" width="465" height="410">
<path d="M0 0 C153.45 0 306.9 0 465 0 C465 135.3 465 270.6 465 410 C311.55 410 158.1 410 0 410 C0 274.7 0 139.4 0 0 Z " fill="#FDFDFD" transform="translate(0,0)"/>
<path d="M0 0 C2.37609375 0.00747651 4.75219373 0.01316276 7.1282959 0.01715088 C13.3293818 0.03229615 19.53008252 0.07148045 25.73101807 0.1159668 C32.07974032 0.15716115 38.42852587 0.17521313 44.77734375 0.1953125 C57.19548011 0.2379869 69.61333281 0.30610113 82.03125 0.390625 C80.80004351 3.57131964 79.67382717 6.14256644 77.4921875 8.7734375 C76.99847656 9.37728271 76.50476563 9.98112793 75.99609375 10.60327148 C75.47144531 11.23434814 74.94679688 11.8654248 74.40625 12.515625 C73.3080612 13.86178665 72.21171114 15.20945038 71.1171875 16.55859375 C70.58448242 17.21520996 70.05177734 17.87182617 69.50292969 18.54833984 C66.93271174 21.76580246 64.5461236 25.10773013 62.15234375 28.45703125 C59.06367333 32.72883878 55.87643794 36.92600119 52.68164062 41.11889648 C52.21048828 41.74223877 51.73933594 42.36558105 51.25390625 43.0078125 C50.72676025 43.66499268 50.19961426 44.32217285 49.65649414 44.99926758 C47.87179888 47.44439883 47.87179888 47.44439883 46.66967773 50.7565918 C44.67857107 54.9420026 43.0926165 58.00451661 39.03125 60.390625 C30.27753708 62.54412219 20.9390762 61.80257846 11.99298096 61.51367188 C7.3249346 61.3740457 2.65551293 61.32531906 -2.01426697 61.28160095 C-4.49335067 61.25335549 -6.97231352 61.20015468 -9.45021057 61.11842346 C-16.95047518 60.97100082 -22.91690331 61.51110057 -28.51869202 66.87464905 C-33.07927231 72.06273229 -33.3809345 76.59465079 -33.30859375 83.25 C-32.62291545 89.58661321 -29.42418393 94.27771822 -24.90625 98.640625 C-20.18385567 102.37100651 -14.54362394 104.27707389 -8.96875 106.390625 C-4.5159643 108.2194477 -0.2501473 110.25943876 4.03125 112.453125 C8.32866767 114.62855907 12.37441427 116.13686153 17.03125 117.390625 C18.87181555 118.27804053 20.71004415 119.1719129 22.51953125 120.12109375 C24.56413035 121.15452253 26.6130085 122.12235517 28.69921875 123.06640625 C29.68921875 123.51657104 29.68921875 123.51657104 30.69921875 123.97583008 C32.01844908 124.57340697 33.33998619 125.16592432 34.6640625 125.75268555 C38.59245032 127.54383847 41.75614765 129.59084723 45.03125 132.390625 C45.8975 132.9475 46.76375 133.504375 47.65625 134.078125 C58.95892645 141.61324263 68.73698707 151.20557753 75.03125 163.390625 C75.03125 164.710625 75.03125 166.030625 75.03125 167.390625 C75.69125 167.390625 76.35125 167.390625 77.03125 167.390625 C85.68002873 187.20724422 84.35013542 208.92775842 79.03125 229.390625 C78.77730469 230.39738281 78.52335938 231.40414062 78.26171875 232.44140625 C72.72252657 250.42331583 58.27185506 266.77953313 41.87792969 275.46435547 C38.48069625 277.16836177 35.030399 278.72074246 31.53125 280.203125 C30.8801123 280.48124023 30.22897461 280.75935547 29.55810547 281.04589844 C27.4039629 281.91135038 25.2340122 282.65710346 23.03125 283.390625 C22.2508284 283.65351318 21.4704068 283.91640137 20.66633606 284.18725586 C8.64417942 287.56641527 -3.80174309 286.76415833 -16.17578125 286.68359375 C-18.71310677 286.67799029 -21.25043556 286.67372374 -23.7877655 286.67073059 C-29.75145713 286.66050099 -35.71499855 286.63692986 -41.67861336 286.60668212 C-48.47682691 286.57296165 -55.27504918 286.55660811 -62.07332575 286.54159582 C-76.0385597 286.51037412 -90.00364558 286.45772487 -103.96875 286.390625 C-103.96875 285.730625 -103.96875 285.070625 -103.96875 284.390625 C-102.97617188 283.978125 -101.98359375 283.565625 -100.9609375 283.140625 C-86.31655678 276.9593784 -73.1806184 269.59936832 -60.96875 259.390625 C-60.45038574 258.95878906 -59.93202148 258.52695312 -59.39794922 258.08203125 C-51.39950588 251.32433672 -41.7151404 242.80601836 -38.00585938 232.79077148 C-36.65823147 229.5781839 -35.60351836 227.69954735 -32.96875 225.390625 C-26.71973716 224.08032274 -20.57265817 224.34822948 -14.21875 224.578125 C1.29290364 225.56480222 1.29290364 225.56480222 15.03125 219.390625 C15.56717773 218.67414795 16.10310547 217.9576709 16.65527344 217.21948242 C17.1093457 216.61595947 17.56341797 216.01243652 18.03125 215.390625 C18.69125 215.390625 19.35125 215.390625 20.03125 215.390625 C21.34811466 208.27099087 22.92979529 199.29324693 19.65625 192.515625 C13.75550525 184.59815329 3.60455516 180.49164893 -5.15625 176.640625 C-6.19716797 176.17269531 -7.23808594 175.70476562 -8.31054688 175.22265625 C-12.40510845 173.38725277 -16.50866421 171.5842424 -20.64453125 169.84375 C-25.6297296 167.66455636 -30.44832388 165.17198258 -35.296875 162.70703125 C-38.7188917 160.97856363 -42.12124907 159.29426547 -45.66796875 157.8359375 C-60.02779619 151.54820241 -73.14070844 139.26822691 -81.96875 126.390625 C-81.96875 125.730625 -81.96875 125.070625 -81.96875 124.390625 C-82.62875 124.390625 -83.28875 124.390625 -83.96875 124.390625 C-87.61892368 118.49740566 -89.86664475 113.23392967 -90.96875 106.390625 C-91.175 105.215 -91.38125 104.039375 -91.59375 102.828125 C-91.7175 102.02375 -91.84125 101.219375 -91.96875 100.390625 C-92.62875 100.390625 -93.28875 100.390625 -93.96875 100.390625 C-97.51666418 85.01872179 -96.85893729 64.55277778 -89.96875 50.390625 C-89.51113281 49.33488281 -89.05351562 48.27914062 -88.58203125 47.19140625 C-85.32608092 40.08183799 -81.17311682 34.20123526 -75.96875 28.390625 C-75.22882813 27.55660156 -74.48890625 26.72257812 -73.7265625 25.86328125 C-53.51525588 4.35977634 -28.24582625 -0.26355897 0 0 Z " fill="#E85E22" transform="translate(319.96875,69.609375)"/>
<path d="M0 0 C119.68273092 0 119.68273092 0 145 8 C145.80953125 8.24878906 146.6190625 8.49757813 147.453125 8.75390625 C153.5850432 10.91259174 159.0655908 14.24142769 164.625 17.5625 C165.44452148 18.045979 166.26404297 18.52945801 167.10839844 19.02758789 C167.86926758 19.49414795 168.63013672 19.96070801 169.4140625 20.44140625 C170.44974365 21.07091187 170.44974365 21.07091187 171.50634766 21.71313477 C171.99925293 22.13780029 172.4921582 22.56246582 173 23 C173 26 173 26 171.25 27.77734375 C170.13625 28.87755859 170.13625 28.87755859 169 30 C157.46246425 47.68938587 155.03412465 65.29029322 154 86 C150.44470144 84.4786251 148.09205469 82.35068042 145.3125 79.6875 C140.87356112 75.5981358 136.4271355 72.60869557 131 70 C131 69.34 131 68.68 131 68 C130.27039063 67.87496094 129.54078125 67.74992187 128.7890625 67.62109375 C125.32416422 66.84949876 122.31445257 65.48413144 119.0859375 64.03515625 C110.95063562 61.30622587 102.60614713 60.69209272 94.08203125 60.5859375 C93.09877365 60.56657135 92.11551605 60.5472052 91.10246277 60.5272522 C88.00589279 60.46815423 84.90928421 60.42135399 81.8125 60.375 C79.69464652 60.3367558 77.57680753 60.29770049 75.45898438 60.2578125 C70.30610921 60.1625114 65.15316148 60.07822757 60 60 C60.01252808 60.73703156 60.02505615 61.47406311 60.03796387 62.23342896 C60.20989313 72.53037403 60.360534 82.82756717 60.5 93.125 C60.51187725 94.00113449 60.5237545 94.87726898 60.53599167 95.779953 C61.08984485 137.26912876 61.08479628 178.7580334 61.0625 220.25 C61.06207577 221.06263211 61.06165154 221.87526423 61.06121445 222.71252155 C61.05819921 228.39314621 61.05469825 234.07377043 61.05078125 239.75439453 C61.0502903 240.46880951 61.04979935 241.18322448 61.04929352 241.9192884 C61.03879646 256.61286759 61.01837718 271.30642618 61 286 C40.87 286 20.74 286 0 286 C0 191.62 0 97.24 0 0 Z " fill="#F59646" transform="translate(62,70)"/>
<path d="M0 0 C2.37609375 0.00747651 4.75219373 0.01316276 7.1282959 0.01715088 C13.3293818 0.03229615 19.53008252 0.07148045 25.73101807 0.1159668 C32.07974032 0.15716115 38.42852587 0.17521313 44.77734375 0.1953125 C57.19548011 0.2379869 69.61333281 0.30610113 82.03125 0.390625 C80.80004351 3.57131964 79.67382717 6.14256644 77.4921875 8.7734375 C76.99847656 9.37728271 76.50476563 9.98112793 75.99609375 10.60327148 C75.47144531 11.23434814 74.94679688 11.8654248 74.40625 12.515625 C73.3080612 13.86178665 72.21171114 15.20945038 71.1171875 16.55859375 C70.58448242 17.21520996 70.05177734 17.87182617 69.50292969 18.54833984 C66.93271174 21.76580246 64.5461236 25.10773013 62.15234375 28.45703125 C59.06367333 32.72883878 55.87643794 36.92600119 52.68164062 41.11889648 C52.21048828 41.74223877 51.73933594 42.36558105 51.25390625 43.0078125 C50.72676025 43.66499268 50.19961426 44.32217285 49.65649414 44.99926758 C47.87179888 47.44439883 47.87179888 47.44439883 46.66967773 50.7565918 C44.67857107 54.9420026 43.0926165 58.00451661 39.03125 60.390625 C30.27753708 62.54412219 20.9390762 61.80257846 11.99298096 61.51367188 C7.3249346 61.3740457 2.65551293 61.32531906 -2.01426697 61.28160095 C-4.49335067 61.25335549 -6.97231352 61.20015468 -9.45021057 61.11842346 C-16.95047518 60.97100082 -22.91690331 61.51110057 -28.51869202 66.87464905 C-33.07927231 72.06273229 -33.3809345 76.59465079 -33.30859375 83.25 C-32.62291545 89.58661321 -29.42418393 94.27771822 -24.90625 98.640625 C-20.18385567 102.37100651 -14.54362394 104.27707389 -8.96875 106.390625 C-4.5159643 108.2194477 -0.2501473 110.25943876 4.03125 112.453125 C8.32866767 114.62855907 12.37441427 116.13686153 17.03125 117.390625 C18.86762047 118.2760179 20.70182409 119.16745728 22.5078125 120.11328125 C24.5915337 121.16804415 26.68256312 122.16333902 28.8046875 123.13671875 C29.47822266 123.44585205 30.15175781 123.75498535 30.84570312 124.07348633 C32.20494223 124.69496781 33.56559596 125.31336589 34.92773438 125.9284668 C37.69118036 127.19740329 39.86268225 128.22205725 42.03125 130.390625 C33.97069497 129.86206401 27.18905254 127.66078457 19.8125 124.4140625 C-11.32971295 110.92641394 -46.73301436 111.64485153 -79.96875 111.390625 C-74.24460383 126.68813847 -64.353275 138.09075068 -50.96875 147.390625 C-51.62875 147.720625 -52.28875 148.050625 -52.96875 148.390625 C-59.30681961 144.00990042 -65.12040881 139.57670056 -70.41015625 133.95703125 C-71.90220856 132.29114636 -71.90220856 132.29114636 -73.96875 131.390625 C-74.98121063 129.69258389 -75.93040204 127.95646913 -76.84375 126.203125 C-78.54850807 122.98163365 -80.23545365 119.86482879 -82.34375 116.890625 C-83.96875 114.390625 -83.96875 114.390625 -83.96875 111.390625 C-85.28875 111.390625 -86.60875 111.390625 -87.96875 111.390625 C-87.63875 113.040625 -87.30875 114.690625 -86.96875 116.390625 C-87.62875 116.060625 -88.28875 115.730625 -88.96875 115.390625 C-89.56640625 113.53515625 -89.56640625 113.53515625 -90.03125 111.203125 C-90.19496094 110.39617187 -90.35867187 109.58921875 -90.52734375 108.7578125 C-91.04640185 105.97419117 -91.53817299 103.18937557 -91.96875 100.390625 C-92.62875 100.390625 -93.28875 100.390625 -93.96875 100.390625 C-97.51666418 85.01872179 -96.85893729 64.55277778 -89.96875 50.390625 C-89.28232422 48.80701172 -89.28232422 48.80701172 -88.58203125 47.19140625 C-85.32608092 40.08183799 -81.17311682 34.20123526 -75.96875 28.390625 C-75.22882813 27.55660156 -74.48890625 26.72257812 -73.7265625 25.86328125 C-53.51525588 4.35977634 -28.24582625 -0.26355897 0 0 Z " fill="#F28330" transform="translate(319.96875,69.609375)"/>
<path d="M0 0 C3.21671226 1.52267696 5.20274183 3.06424593 7.625 5.6875 C20.54139392 18.86459178 39.7908114 28.83066824 57 35 C58 36 58 36 58.01953125 37.93359375 C57.54732094 43.64466567 56.32207172 48.30534564 54.04296875 53.5546875 C53.03973668 55.9068346 52.21724485 58.25337585 51.4375 60.6875 C50.17842504 64.57541278 48.66682302 68.26949134 47 72 C46.34 72 45.68 72 45 72 C44.75121094 72.86496094 44.50242187 73.72992188 44.24609375 74.62109375 C35.0138932 99.6551172 7.85719194 119.37300936 -15.23828125 130.28515625 C-29.50177542 136.84571077 -45.99450667 144.15568732 -61.97387695 144.11352539 C-63.43476746 144.11334412 -63.43476746 144.11334412 -64.9251709 144.11315918 C-65.93599731 144.10804321 -66.94682373 144.10292725 -67.98828125 144.09765625 C-69.39611877 144.09614563 -69.39611877 144.09614563 -70.83239746 144.09460449 C-74.32577747 144.08938734 -77.81914001 144.07542608 -81.3125 144.0625 C-89.129375 144.041875 -96.94625 144.02125 -105 144 C-105 123.87 -105 103.74 -105 83 C-86.4375 82.625 -86.4375 82.625 -80.61889648 82.52197266 C-79.07794543 82.48673015 -77.53700977 82.4508049 -75.99609375 82.4140625 C-75.21141724 82.40270264 -74.42674072 82.39134277 -73.61828613 82.37963867 C-68.72978341 82.25238582 -64.64799615 81.5296079 -60 80 C-59.31035156 79.81179688 -58.62070313 79.62359375 -57.91015625 79.4296875 C-46.4136266 75.97829805 -34.89988656 70.05824739 -26 62 C-24.99259766 61.12988281 -24.99259766 61.12988281 -23.96484375 60.2421875 C-17.9474473 54.70015377 -14.00002682 48.08040462 -10 41 C-9.5875 40.27683594 -9.175 39.55367187 -8.75 38.80859375 C-7.73134193 36.902589 -6.84575157 34.98865909 -6 33 C-5.65195313 32.20335937 -5.30390625 31.40671875 -4.9453125 30.5859375 C-1.15371558 20.76099657 -0.71976777 10.41029976 0 0 Z " fill="#EA6722" transform="translate(237,212)"/>
<path d="M0 0 C0 46.53 0 93.06 0 141 C-19.47 141 -38.94 141 -59 141 C-59.36097928 115.11644838 -59.36097928 115.11644838 -59.43945312 104.06640625 C-59.49321531 96.53180769 -59.556749 88.99819527 -59.67895508 81.46435547 C-59.77688684 75.38883683 -59.83058812 69.31437578 -59.85389519 63.23812866 C-59.87049984 60.9223872 -59.90292671 58.6067024 -59.95157051 56.29141235 C-60.3173213 38.15841755 -60.3173213 38.15841755 -57.07862854 32.85185242 C-54.7943566 30.77414625 -52.743521 29.38981447 -50 28 C-48.64630111 27.09885568 -47.29755263 26.19016375 -45.95703125 25.26953125 C-44.5814597 24.44058493 -43.19970119 23.62183427 -41.8125 22.8125 C-41.05855957 22.36253662 -40.30461914 21.91257324 -39.52783203 21.44897461 C-37.89728686 20.47789217 -36.26405612 19.51130746 -34.62841797 18.54882812 C-31.81923097 16.89347959 -29.02054994 15.22123441 -26.22265625 13.546875 C-24.27383419 12.38475118 -22.32462158 11.22328202 -20.375 10.0625 C-19.46339111 9.51891846 -18.55178223 8.97533691 -17.61254883 8.4152832 C-3.37825653 0 -3.37825653 0 0 0 Z " fill="#EA621D" transform="translate(122,214)"/>
<path d="M0 0 C1.43001343 -0.00954712 1.43001343 -0.00954712 2.88891602 -0.01928711 C9.74946404 0.10289593 15.8479512 1.4222731 22.375 3.5 C22.375 8.13770493 21.61573608 8.98373115 18.875 12.5625 C15.94169015 16.43219272 13.09197557 20.33094205 10.3125 24.3125 C4.25323315 32.56341657 -4.06511599 40.18647888 -14.62011719 41.80615234 C-22.27428901 42.44429792 -28.69375512 41.8625056 -35.625 38.5 C-34.64174465 32.15871547 -28.85868129 27.88937808 -23.94189453 24.25634766 C-17.78893078 19.98518921 -11.58033759 16.31399155 -4.625 13.5 C-17.10102631 15.8603293 -27.25786592 20.96550006 -36.625 29.5 C-37.285 29.5 -37.945 29.5 -38.625 29.5 C-39.54053653 22.48088663 -36.77607257 18.04369046 -32.625 12.5 C-23.93622213 2.31383638 -12.7642757 0.0727981 0 0 Z " fill="#EE7029" transform="translate(365.625,139.5)"/>
<path d="M0 0 C1.38028635 0.14349512 2.75922399 0.31666032 4.125 0.5625 C0.82970513 11.46721973 -6.5951839 20.01719615 -13.875 28.5625 C-14.73738281 29.62791016 -14.73738281 29.62791016 -15.6171875 30.71484375 C-23.97655711 40.81408215 -35.17806939 48.1451074 -45.875 55.5625 C-46.78894531 56.31402344 -47.70289063 57.06554687 -48.64453125 57.83984375 C-53.22008247 60.27976888 -57.15623476 60.0014271 -62.25 59.8125 C-63.17683594 59.79445313 -64.10367188 59.77640625 -65.05859375 59.7578125 C-67.33181435 59.71094197 -69.60285407 59.64535525 -71.875 59.5625 C-70.875 56.5625 -70.875 56.5625 -67.69921875 54.765625 C-66.32422399 54.10636246 -64.9450128 53.45584754 -63.5625 52.8125 C-62.09240142 52.10043378 -60.62365971 51.38555979 -59.15625 50.66796875 C-58.42792969 50.3126709 -57.69960937 49.95737305 -56.94921875 49.59130859 C-47.6409231 44.97441148 -39.69124946 39.37925779 -31.875 32.5625 C-30.9571875 31.79035156 -30.039375 31.01820313 -29.09375 30.22265625 C-20.41156384 22.69890785 -13.51638226 14.21612394 -7.8125 4.25 C-5.57352417 0.71409581 -4.19112513 0.02607232 0 0 Z " fill="#D85228" transform="translate(291.875,295.4375)"/>
<path d="M0 0 C6.625 0.75 6.625 0.75 10 3 C10 6 10 6 8.25 7.77734375 C7.5075 8.51082031 6.765 9.24429688 6 10 C-5.53753575 27.68938587 -7.96587535 45.29029322 -9 66 C-13.16381278 64.05387011 -16.43737952 61.88553171 -19 58 C-20.37646668 51.79403386 -18.44678337 45.05320857 -17 39 C-16.75507813 37.8759375 -16.51015625 36.751875 -16.2578125 35.59375 C-13.17498505 22.6076804 -7.38801229 11.08201843 0 0 Z " fill="#E4602D" transform="translate(225,90)"/>
<path d="M0 0 C0.66 0.33 1.32 0.66 2 1 C1.23816406 1.72703125 1.23816406 1.72703125 0.4609375 2.46875 C-6.27857624 9.03157237 -11.55913893 15.15207152 -15 24 C-15.47695312 24.89589844 -15.95390625 25.79179688 -16.4453125 26.71484375 C-24.66908907 44.09222087 -22.99943683 65.39809662 -21 84 C-20.34 84 -19.68 84 -19 84 C-18.72349609 84.94746094 -18.72349609 84.94746094 -18.44140625 85.9140625 C-13.08999362 102.42019744 -2.2032335 115.2402362 12 125 C11.01 125.495 11.01 125.495 10 126 C3.66193039 121.61927542 -2.15165881 117.18607556 -7.44140625 111.56640625 C-8.93345856 109.90052136 -8.93345856 109.90052136 -11 109 C-12.01246063 107.30195889 -12.96165204 105.56584413 -13.875 103.8125 C-15.57975807 100.59100865 -17.26670365 97.47420379 -19.375 94.5 C-21 92 -21 92 -21 89 C-22.32 89 -23.64 89 -25 89 C-24.67 90.65 -24.34 92.3 -24 94 C-24.66 93.67 -25.32 93.34 -26 93 C-26.59765625 91.14453125 -26.59765625 91.14453125 -27.0625 88.8125 C-27.22621094 88.00554687 -27.38992187 87.19859375 -27.55859375 86.3671875 C-28.07765185 83.58356617 -28.56942299 80.79875057 -29 78 C-29.66 78 -30.32 78 -31 78 C-32.41047466 72.04716379 -32.18601868 66.04856158 -32.18530273 59.97021484 C-32.18750055 57.87447127 -32.20571858 55.77924517 -32.22460938 53.68359375 C-32.22754169 52.34896013 -32.22952757 51.01432401 -32.23046875 49.6796875 C-32.23457764 48.47038574 -32.23868652 47.26108398 -32.24291992 46.01513672 C-32 43 -32 43 -30 40 C-30 48.91 -30 57.82 -30 67 C-29.896875 64.875625 -29.79375 62.75125 -29.6875 60.5625 C-29.32367166 55.44328151 -28.6578647 51.15876175 -26.80859375 46.3984375 C-25.78068283 43.34946502 -25.26743667 40.28891486 -24.6875 37.125 C-21.56266335 22.12900556 -11.74683882 9.48992303 0 0 Z " fill="#F5C090" transform="translate(257,92)"/>
<path d="M0 0 C3.59289074 1.79644537 5.01757415 2.86371329 7.625 5.6875 C20.54139392 18.86459178 39.7908114 28.83066824 57 35 C58 36 58 36 58.0625 39.0625 C58.041875 40.031875 58.02125 41.00125 58 42 C57.34 42 56.68 42 56 42 C56 42.66 56 43.32 56 44 C50.65286756 43.49205674 46.46520485 42.11605418 41.6875 39.625 C41.00453857 39.2741333 40.32157715 38.9232666 39.61791992 38.56176758 C26.94059131 31.93110142 15.07949638 24.68514815 4.40625 15.1171875 C2.19799232 12.99271137 2.19799232 12.99271137 0 12 C0 8.04 0 4.08 0 0 Z " fill="#D34621" transform="translate(237,212)"/>
<path d="M0 0 C0 0.99 0 1.98 0 3 C-0.99 3.33 -1.98 3.66 -3 4 C-3.33 4.66 -3.66 5.32 -4 6 C-6.28195545 6.93542299 -8.55579806 7.79299299 -10.875 8.625 C-17.26997141 11.02244599 -22.37911188 14.04767087 -27.73046875 18.36328125 C-29.97848131 19.98448135 -31.36585997 20.38395112 -34 21 C-40.50690286 25.38712832 -44.88503675 31.43542334 -49 38 C-49.53753906 38.83273438 -50.07507813 39.66546875 -50.62890625 40.5234375 C-54.59517624 47.14382801 -56.48423283 53.74609045 -58.140625 61.203125 C-59 65 -59 65 -60.0703125 68.48828125 C-61.09423088 72.35593932 -61.41305667 75.9459006 -61.625 79.9375 C-61.66367188 80.62134766 -61.70234375 81.30519531 -61.7421875 82.00976562 C-61.83522412 83.67279513 -61.91863787 85.33635847 -62 87 C-62.66 86.67 -63.32 86.34 -64 86 C-64.78729342 54.75858212 -64.78729342 54.75858212 -58 44 C-57.608125 42.96875 -57.21625 41.9375 -56.8125 40.875 C-49.08701944 22.57155376 -31.0891065 9.45656419 -13.3359375 1.93359375 C-12.56507813 1.62550781 -11.79421875 1.31742187 -11 1 C-9.88625 0.54625 -8.7725 0.0925 -7.625 -0.375 C-4.70855549 -1.06939155 -2.85501362 -0.83970989 0 0 Z " fill="#F28F39" transform="translate(290,73)"/>
<path d="M0 0 C1.22244667 0.00333092 1.22244667 0.00333092 2.46958923 0.00672913 C3.39046829 0.00680466 4.31134735 0.00688019 5.26013184 0.00695801 C6.2611644 0.01211929 7.26219696 0.01728058 8.29356384 0.02259827 C9.31316696 0.02401321 10.33277008 0.02542816 11.38327026 0.02688599 C14.65417867 0.03250355 17.92501972 0.04505902 21.19590759 0.05775452 C23.40749515 0.06276725 25.61908377 0.06733055 27.83067322 0.07142639 C33.26494116 0.08247868 38.69916957 0.09923389 44.13340759 0.12025452 C44.62840759 1.11025452 44.62840759 1.11025452 45.13340759 2.12025452 C35.72788997 3.25054772 26.39953237 3.23691538 16.94590759 3.18275452 C15.40619552 3.17772649 13.86648184 3.1731659 12.32676697 3.16908264 C8.59561331 3.15818715 4.86452105 3.14099533 1.13340759 3.12025452 C1.1356282 4.03606293 1.13784882 4.95187134 1.14013672 5.89543152 C1.16037823 14.62996654 1.17550123 23.36449341 1.18521976 32.09904671 C1.19038448 36.58692063 1.19736173 41.07477478 1.20884705 45.56263733 C1.29416928 79.92726733 1.29416928 79.92726733 0.75450134 93.42494202 C0.72389114 94.29611664 0.69328094 95.16729126 0.66174316 96.06486511 C0.47292713 99.87744986 0.29420323 101.87906106 -1.86659241 105.12025452 C-2.94316871 93.43560326 -3.01347386 81.82441867 -2.99940491 70.10072327 C-3.00007982 68.10530587 -3.00105141 66.10988855 -3.00230408 64.11447144 C-3.00376777 59.96526799 -3.00166662 55.81608627 -2.9969635 51.66688538 C-2.99121831 46.33812106 -2.99458353 41.0094066 -3.00053596 35.68064404 C-3.00413642 31.57588316 -3.00300622 27.47113428 -3.00040817 23.36637306 C-2.99973997 21.3994833 -3.00056363 19.43259246 -3.00288773 17.46570396 C-3.00541096 14.73488304 -3.0015806 12.00414536 -2.99598694 9.27333069 C-2.99801117 8.45735413 -3.0000354 7.64137756 -3.00212097 6.80067444 C-2.9768833 0.19178459 -2.9768833 0.19178459 0 0 Z " fill="#F4AE69" transform="translate(67.86659240722656,73.87974548339844)"/>
<path d="M0 0 C1.32 0 2.64 0 4 0 C4.38671875 0.72445312 4.7734375 1.44890625 5.171875 2.1953125 C8.52763163 8.49636204 8.52763163 8.49636204 12.375 14.5 C14 17 14 17 14 20 C14.59554687 20.26425781 15.19109375 20.52851563 15.8046875 20.80078125 C18.08239998 22.04501209 19.38697779 23.27916908 21.125 25.1875 C25.30083548 29.48960265 30.90740209 35.0388716 36.88891602 36.44360352 C39.26085322 37.06875037 41.00678428 38.02678756 43.109375 39.28515625 C43.86347656 39.73310547 44.61757813 40.18105469 45.39453125 40.64257812 C46.56048828 41.34543945 46.56048828 41.34543945 47.75 42.0625 C48.54277344 42.53494141 49.33554687 43.00738281 50.15234375 43.49414062 C52.1043111 44.65826573 54.05335805 45.82699902 56 47 C55.01 47.495 55.01 47.495 54 48 C51.18338679 46.58981815 48.49573508 45.05234376 45.78710938 43.44921875 C44.22976195 42.56183123 42.61655467 41.7742988 41 41 C40.01 41.33 39.02 41.66 38 42 C38.33 42.66 38.66 43.32 39 44 C30.68130905 39.94631919 23.66041956 35.03354775 17.125 28.5 C16.59011963 27.96656982 16.05523926 27.43313965 15.50415039 26.88354492 C6 17.11443936 6 17.11443936 6 13 C5.34 13 4.68 13 4 13 C3.32694982 11.39850114 2.66177773 9.79368971 2 8.1875 C1.62875 7.29417969 1.2575 6.40085938 0.875 5.48046875 C0 3 0 3 0 0 Z " fill="#E85E31" transform="translate(232,181)"/>
<path d="M0 0 C15.18 0 30.36 0 46 0 C46.495 0.99 46.495 0.99 47 2 C32.15 2 17.3 2 2 2 C2 27.41 2 52.82 2 79 C1.34 79 0.68 79 0 79 C0 52.93 0 26.86 0 0 Z " fill="#F6D5AF" transform="translate(66,74)"/>
<path d="M0 0 C0.33 0 0.66 0 1 0 C2.43022121 5.70906484 2.33866913 11.58000746 2.51757812 17.43164062 C2.73697398 22.91653688 3.58528227 27.70196802 5 33 C5 34.32 5 35.64 5 37 C5.66 37 6.32 37 7 37 C7.18433594 37.63164062 7.36867187 38.26328125 7.55859375 38.9140625 C12.91000638 55.42019744 23.7967665 68.2402362 38 78 C37.01 78.495 37.01 78.495 36 79 C29.66193039 74.61927542 23.84834119 70.18607556 18.55859375 64.56640625 C17.06654144 62.90052136 17.06654144 62.90052136 15 62 C14.00545607 60.36673138 13.07821852 58.69213018 12.1875 57 C10.01681981 52.86660269 10.01681981 52.86660269 7.671875 48.83203125 C-1.02642124 34.60095797 -2.43654091 19.37111121 -1 3 C-0.67 2.01 -0.34 1.02 0 0 Z " fill="#F8D3B5" transform="translate(231,139)"/>
<path d="M0 0 C2 3 2 3 3 6 C2.29296875 8.3828125 2.29296875 8.3828125 1.1875 11.125 C-0.41886345 15.30927318 -1.65957844 19.33740662 -2.5078125 23.734375 C-3 26 -3 26 -4.015625 29.26953125 C-5.05932385 33.22481855 -5.40834911 36.85724152 -5.625 40.9375 C-5.66367188 41.62134766 -5.70234375 42.30519531 -5.7421875 43.00976562 C-5.83522412 44.67279513 -5.91863787 46.33635847 -6 48 C-6.66 47.67 -7.32 47.34 -8 47 C-8.78948125 15.67176442 -8.78948125 15.67176442 -2 5 C-1.30177383 3.34630643 -0.62501395 1.68272986 0 0 Z " fill="#F29656" transform="translate(234,112)"/>
<path d="M0 0 C0.95376567 3.20782086 1.11621181 6.08187396 1.09765625 9.421875 C1.09443359 10.44667969 1.09121094 11.47148437 1.08789062 12.52734375 C1.07951172 13.59082031 1.07113281 14.65429688 1.0625 15.75 C1.05798828 16.82894531 1.05347656 17.90789062 1.04882812 19.01953125 C1.03705742 21.67971125 1.01912239 24.33986269 1 27 C1.33 22.38 1.66 17.76 2 13 C2.33 13 2.66 13 3 13 C3.01417969 13.969375 3.02835938 14.93875 3.04296875 15.9375 C3.32189913 25.13641556 4.89028813 32.99828421 7.94140625 41.671875 C9 45 9 45 9 49 C8.01 49 7.02 49 6 49 C6.33 50.65 6.66 52.3 7 54 C6.34 53.67 5.68 53.34 5 53 C4.40234375 51.14453125 4.40234375 51.14453125 3.9375 48.8125 C3.77378906 48.00554687 3.61007813 47.19859375 3.44140625 46.3671875 C2.92234815 43.58356617 2.43057701 40.79875057 2 38 C1.34 38 0.68 38 0 38 C-0.96010833 33.9660195 -1.12895689 30.19616412 -1.1328125 26.0546875 C-1.13376923 25.40299591 -1.13472595 24.75130432 -1.13571167 24.0798645 C-1.13638897 22.70998029 -1.13456624 21.3400928 -1.13037109 19.97021484 C-1.12499898 17.87460146 -1.13034018 15.77920069 -1.13671875 13.68359375 C-1.13605823 12.34895786 -1.1347776 11.01432211 -1.1328125 9.6796875 C-1.13168457 8.47038574 -1.13055664 7.26108398 -1.12939453 6.01513672 C-1 3 -1 3 0 0 Z " fill="#F4AD81" transform="translate(226,132)"/>
<path d="M0 0 C2 2 2 2 3.0625 5.75 C7.82326645 20.53217982 19.47411414 32.39282703 32 41 C31.01 41.495 31.01 41.495 30 42 C23.66193039 37.61927542 17.84834119 33.18607556 12.55859375 27.56640625 C11.06654144 25.90052136 11.06654144 25.90052136 9 25 C7.98753937 23.30195889 7.03834796 21.56584413 6.125 19.8125 C4.41984537 16.57815264 2.73685649 13.50204815 0.5625 10.5625 C-1 8 -1 8 -0.75 5.875 C-0.5025 5.25625 -0.255 4.6375 0 4 C0 2.68 0 1.36 0 0 Z " fill="#EDAF89" transform="translate(237,176)"/>
<path d="M0 0 C2.45052411 1.19458048 4.78699898 2.53726862 7.125 3.9375 C7.71925781 4.28490234 8.31351562 4.63230469 8.92578125 4.99023438 C12.29929025 6.96742343 15.64982758 8.98357547 19 11 C18.01 11.495 18.01 11.495 17 12 C14.18338679 10.58981815 11.49573508 9.05234376 8.78710938 7.44921875 C7.22976195 6.56183123 5.61655467 5.7742988 4 5 C3.01 5.33 2.02 5.66 1 6 C1.33 6.66 1.66 7.32 2 8 C-1.10742423 6.53181332 -3.90471739 4.79975 -6.75 2.875 C-7.54921875 2.33617187 -8.3484375 1.79734375 -9.171875 1.2421875 C-9.77515625 0.83226562 -10.3784375 0.42234375 -11 0 C-7.04224599 -2.84958289 -4.34996539 -1.6139935 0 0 Z " fill="#E96C3C" transform="translate(269,217)"/>
<path d="M0 0 C-2.89181196 1.8977516 -5.68730998 3.30211692 -8.9375 4.4375 C-12.75686103 5.8000045 -15.72304995 7.62421122 -19 10 C-19.33 8.35 -19.66 6.7 -20 5 C-5.00784519 -2.00313808 -5.00784519 -2.00313808 0 0 Z " fill="#F8E6D7" transform="translate(363,153)"/>
<path d="M0 0 C2.17841025 2.17841025 2.4908567 3.23160581 3.3125 6.125 C4.62760689 10.35650975 6.50666066 13.60826763 9.109375 17.17578125 C10 19 10 19 9.640625 21.23046875 C9.42921875 21.81441406 9.2178125 22.39835937 9 23 C7.8936781 21.43902526 6.79004215 19.87614673 5.6875 18.3125 C5.07261719 17.44238281 4.45773438 16.57226562 3.82421875 15.67578125 C-1.07432576 8.49055001 -1.07432576 8.49055001 -0.6875 5.9375 C-0.460625 5.298125 -0.23375 4.65875 0 4 C0 2.68 0 1.36 0 0 Z " fill="#F2BB94" transform="translate(237,176)"/>
<path d="M0 0 C0.33 0 0.66 0 1 0 C1.33 3.63 1.66 7.26 2 11 C2.33 11 2.66 11 3 11 C3 16.28 3 21.56 3 27 C2.34 27.33 1.68 27.66 1 28 C-0.35700647 25.28598706 -0.1123861 23.15153684 -0.09765625 20.1171875 C-0.09443359 18.95058594 -0.09121094 17.78398437 -0.08789062 16.58203125 C-0.07951172 15.35871094 -0.07113281 14.13539063 -0.0625 12.875 C-0.05798828 11.64394531 -0.05347656 10.41289062 -0.04882812 9.14453125 C-0.0370133 6.09630608 -0.02054028 3.04817686 0 0 Z " fill="#F49254" transform="translate(65,165)"/>
<path d="M0 0 C2 3 2 3 3 6 C2.44140625 8.04296875 2.44140625 8.04296875 1.5625 10.1875 C1.27503906 10.90292969 0.98757812 11.61835937 0.69140625 12.35546875 C0.46324219 12.89816406 0.23507813 13.44085938 0 14 C-0.66 12.68 -1.32 11.36 -2 10 C-2.99 11.32 -3.98 12.64 -5 14 C-4.46515599 8.65155992 -2.53309233 4.64203897 0 0 Z " fill="#F19D5B" transform="translate(234,112)"/>
<path d="M0 0 C0.66 0.33 1.32 0.66 2 1 C0.04761147 3.00612399 -1.91137822 5.00492433 -3.875 7 C-4.43058594 7.57234375 -4.98617188 8.1446875 -5.55859375 8.734375 C-7.00134404 10.19450782 -8.4974374 11.60149298 -10 13 C-10.66 13 -11.32 13 -12 13 C-12.33 13.66 -12.66 14.32 -13 15 C-12.46672287 10.97283825 -10.48432021 9.14178557 -7.625 6.375 C-6.83351563 5.59898437 -6.04203125 4.82296875 -5.2265625 4.0234375 C-3 2 -3 2 0 0 Z " fill="#EE935D" transform="translate(343,163)"/>
<path d="M0 0 C4.23429756 1.31061591 8.07407404 2.94356259 12 5 C12 5.33 12 5.66 12 6 C7.02906176 5.58846263 2.55491614 5.20399168 -2 3 C-1.34 2.01 -0.68 1.02 0 0 Z " fill="#F08F62" transform="translate(350,194)"/>
<path d="M0 0 C4.42140162 4.42140162 5.37313178 10.98206508 6 17 C2.58007221 14.72004814 2.3885648 13.98504086 1.3125 10.1875 C1.06113281 9.33542969 0.80976563 8.48335937 0.55078125 7.60546875 C-0.00228387 4.98919614 -0.10048484 2.66524083 0 0 Z " fill="#F9D5B8" transform="translate(232,166)"/>
<path d="M0 0 C-0.11442461 1.60495567 -0.24194694 3.20898119 -0.375 4.8125 C-0.44460937 5.70582031 -0.51421875 6.59914063 -0.5859375 7.51953125 C-1 10 -1 10 -3 13 C-3 11.02 -3 9.04 -3 7 C-3.66 7 -4.32 7 -5 7 C-4.39816251 4.97954558 -3.72693904 2.97888961 -3 1 C-1 0 -1 0 0 0 Z " fill="#F5C396" transform="translate(239,117)"/>
<path d="M0 0 C-2.26562546 1.50842171 -4.53686163 3.00682251 -6.8125 4.5 C-7.45509766 4.92925781 -8.09769531 5.35851562 -8.75976562 5.80078125 C-13.66015625 9 -13.66015625 9 -17 9 C-14.21022965 6.02899167 -11.41851087 3.80340857 -7.9375 1.6875 C-7.08027344 1.15511719 -6.22304688 0.62273437 -5.33984375 0.07421875 C-3 -1 -3 -1 0 0 Z " fill="#F1A957" transform="translate(275,83)"/>
<path d="M0 0 C4.455 0.99 4.455 0.99 9 2 C8.67 2.99 8.34 3.98 8 5 C5.69 4.67 3.38 4.34 1 4 C0.67 2.68 0.34 1.36 0 0 Z " fill="#EF7D4A" transform="translate(341,191)"/>
<path d="M0 0 C-4.81384901 3.81788025 -10.10647769 3.70067925 -16 4 C-13.71185277 1.71185277 -12.19248378 1.24548839 -9.125 0.3125 C-8.26132812 0.04050781 -7.39765625 -0.23148438 -6.5078125 -0.51171875 C-3.91305068 -1.01692938 -2.469215 -0.85561171 0 0 Z " fill="#F4C5A4" transform="translate(363,153)"/>
<path d="M0 0 C0 3.69418201 -1.28179295 5.77836178 -3 9 C-3.99 8.34 -4.98 7.68 -6 7 C-4.52307692 2.32307692 -4.52307692 2.32307692 -1.875 0.6875 C-1.25625 0.460625 -0.6375 0.23375 0 0 Z " fill="#F5BA82" transform="translate(243,111)"/>
<path d="M0 0 C1.46300982 0.93018526 2.92025579 1.86944027 4.375 2.8125 C5.18710937 3.33457031 5.99921875 3.85664063 6.8359375 4.39453125 C9 6 9 6 11 9 C6.32894208 7.44298069 2.91294315 4.91552627 -1 2 C-0.67 1.34 -0.34 0.68 0 0 Z " fill="#E9946B" transform="translate(258,209)"/>
<path d="M0 0 C-1.44077046 3.36179774 -3.24750021 5.59156268 -6 8 C-6.66 8 -7.32 8 -8 8 C-6.48291727 4.46014029 -4.24676932 0 0 0 Z " fill="#F18E50" transform="translate(340,147)"/>
</svg>
